<svg xmlns="http://www.w3.org/2000/svg" viewBox="0 0 400 200">
  <defs>
    <linearGradient id="grad1" x1="0%" y1="0%" x2="100%" y2="100%">
      <stop offset="0%" style="stop-color:#ffffff;stop-opacity:1" />
      <stop offset="100%" style="stop-color:#cccccc;stop-opacity:1" />
    </linearGradient>
  </defs>

  <rect x="0" y="0" width="400" height="200" fill="#111111"/>

  <g transform="translate(30, 30)">
    <path d="M0,0 h80" stroke="#ffffff" stroke-width="15"/>
    <path d="M40,0 v90" stroke="#ffffff" stroke-width="15"/>
    <rect x="25" y="40" width="30" height="4" fill="#ffffff" transform="rotate(45, 40, 42)"/>
    <rect x="25" y="60" width="30" height="4" fill="#ffffff" transform="rotate(-45, 40, 62)"/>
  </g>

  <g transform="translate(140, 30)">
    <path d="M0,90 v-60 l40,90 l40,-90 v60" 
          fill="none" 
          stroke="url(#grad1)" 
          stroke-width="15"
          stroke-linecap="square"/>
    <!-- M papildomi elementai -->
    <circle cx="40" cy="45" r="4" fill="#ffffff"/>
    <rect x="35" y="60" width="10" height="10" fill="#ffffff"/>
  </g>

  <g transform="translate(250, 30)">
    <path d="M0,0 v90 M0,45 h60 M60,0 v90" 
          stroke="#ffffff" 
          stroke-width="15"
          stroke-linecap="round"/>
    <path d="M30,15 l30,0" stroke="#ffffff" stroke-width="4"/>
    <path d="M30,75 l30,0" stroke="#ffffff" stroke-width="4"/>
  </g>

  <g transform="translate(20, 140)">
    <line x1="0" y1="0" x2="360" y2="0" stroke="#ffffff" stroke-width="2"/>
    <circle cx="180" cy="0" r="4" fill="#ffffff"/>
    <rect x="178" y="10" width="4" height="20" fill="#ffffff"/>
  </g>
</svg>